<?xml version="1.0" encoding="UTF-8" standalone="no"?>
<!DOCTYPE svg PUBLIC "-//W3C//DTD SVG 20010904//EN"
              "http://www.w3.org/TR/2001/REC-SVG-20010904/DTD/svg10.dtd">

<svg xmlns="http://www.w3.org/2000/svg"
     width="11.3778in" height="11.3778in"
     viewBox="0 0 1024 1024">
  <path id="Auswahl"
        fill="#d56b52" stroke="#d56b52" stroke-width="1"
        d="M 406.00,423.00
           C 406.97,416.79 410.11,409.99 412.32,404.00
             412.32,404.00 426.58,366.00 426.58,366.00
             426.58,366.00 465.81,261.00 465.81,261.00
             465.81,261.00 478.19,228.00 478.19,228.00
             479.40,224.84 481.76,216.78 484.41,215.02
             486.50,213.64 492.39,213.96 495.00,214.00
             502.62,214.15 502.27,216.12 505.95,226.00
             505.95,226.00 519.42,262.00 519.42,262.00
             519.42,262.00 558.42,366.00 558.42,366.00
             558.42,366.00 572.68,404.00 572.68,404.00
             574.89,409.99 578.03,416.79 579.00,423.00
             579.00,423.00 780.00,423.00 780.00,423.00
             782.94,423.00 788.14,422.73 790.40,424.85
             793.08,427.38 792.40,439.98 790.40,442.91
             788.68,445.43 783.59,448.90 781.00,450.88
             781.00,450.88 763.00,464.79 763.00,464.79
             763.00,464.79 671.00,535.87 671.00,535.87
             671.00,535.87 641.00,559.00 641.00,559.00
             638.12,561.26 629.12,567.70 627.50,570.09
             624.86,573.98 627.99,579.97 629.33,584.00
             629.33,584.00 640.67,618.00 640.67,618.00
             640.67,618.00 687.33,758.00 687.33,758.00
             687.33,758.00 700.00,796.00 700.00,796.00
             701.38,800.13 704.50,807.66 701.83,811.69
             699.76,814.79 693.37,814.04 690.00,814.00
             681.15,813.88 677.81,809.69 671.00,804.63
             671.00,804.63 646.00,786.37 646.00,786.37
             646.00,786.37 540.00,708.63 540.00,708.63
             540.00,708.63 505.00,683.13 505.00,683.13
             501.76,680.68 495.17,674.39 491.00,675.57
             488.71,676.23 480.52,682.76 478.00,684.58
             478.00,684.58 448.00,706.58 448.00,706.58
             448.00,706.58 345.00,782.00 345.00,782.00
             345.00,782.00 313.00,805.42 313.00,805.42
             306.84,809.87 303.89,813.85 296.00,814.00
             292.53,814.06 285.29,814.87 283.17,811.69
             280.50,807.66 283.62,800.13 285.00,796.00
             285.00,796.00 297.67,758.00 297.67,758.00
             297.67,758.00 344.33,618.00 344.33,618.00
             344.33,618.00 355.67,584.00 355.67,584.00
             357.01,579.97 360.14,573.98 357.50,570.09
             355.87,567.68 347.80,561.99 345.00,559.79
             345.00,559.79 318.00,539.00 318.00,539.00
             318.00,539.00 221.00,464.35 221.00,464.35
             221.00,464.35 203.00,450.42 203.00,450.42
             200.68,448.62 195.37,445.01 194.02,442.70
             192.47,440.04 192.25,427.05 194.60,424.93
             196.94,422.83 202.96,423.00 206.00,423.00
             206.00,423.00 406.00,423.00 406.00,423.00 Z" />
</svg>
