<svg xmlns="http://www.w3.org/2000/svg" xmlns:xlink="http://www.w3.org/1999/xlink" width="24" height="24" viewBox="0 0 24 24">
  <defs>
    <clipPath id="clip-path">
      <path id="Pfad_17" data-name="Pfad 17" d="M0-22.58H14.076V-8.5H0Z" transform="translate(0 22.58)" fill="#d56b52"/>
    </clipPath>
    <clipPath id="clip-FavouritenKlein">
      <rect width="24" height="24"/>
    </clipPath>
  </defs>
  <g id="FavouritenKlein" clip-path="url(#clip-FavouritenKlein)">
    <rect width="24" height="24" fill="#fff"/>
    <g id="Gruppe_46" data-name="Gruppe 46" transform="translate(4.504 27.58)">
      <g id="Gruppe_34" data-name="Gruppe 34" transform="translate(0.156 -22.424)">
        <path id="Pfad_15" data-name="Pfad 15" d="M-3.024-3.024H-8.03L-3.965.106-5.842,5.735l4.694-3.441L3.546,5.735,1.669.106l4.065-3.13H.729L-1.148-8.03ZM-3.368.3l.138-.418-.35-.274L-6.191-2.4h3.6l.156-.4,1.29-3.442L.143-2.805.3-2.4H3.9L1.284-.393.934-.119l1.4,4.189L-.78,1.789l-.368-.268-.368.268L-4.626,4.07Z" transform="translate(8.03 8.03)" fill="#d56b52"/>
      </g>
      <g id="Gruppe_36" data-name="Gruppe 36" transform="translate(0 -22.58)" clip-path="url(#clip-path)">
        <g id="Gruppe_35" data-name="Gruppe 35" transform="translate(0.156 0.156)">
          <path id="Pfad_16" data-name="Pfad 16" d="M-6.259-7.31-9.37-9.591l-.368-.268-.368.268L-13.216-7.31l1.259-3.772.138-.418-.349-.274-2.612-2.007h3.6l.156-.4,1.29-3.442,1.29,3.442.156.4h3.6l-2.612,2.007-.349.274Zm3.4-7.094H-7.861L-9.738-19.41-11.614-14.4H-16.62l4.065,3.13-1.876,5.629,4.694-3.441,4.694,3.441-1.876-5.629Z" transform="translate(16.62 19.41)" fill="#d56b52" stroke="#d56b52" stroke-linecap="round" stroke-linejoin="round" stroke-width="0.5"/>
        </g>
      </g>
    </g>
  </g>
</svg>
